<?xml version="1.0" encoding="UTF-8" standalone="no"?>
<!-- Generator: Adobe Illustrator 18.1.1, SVG Export Plug-In . SVG Version: 6.00 Build 0)  -->

<svg
   xmlns:dc="http://purl.org/dc/elements/1.1/"
   xmlns:cc="http://creativecommons.org/ns#"
   xmlns:rdf="http://www.w3.org/1999/02/22-rdf-syntax-ns#"
   xmlns:svg="http://www.w3.org/2000/svg"
   xmlns="http://www.w3.org/2000/svg"
   xmlns:sodipodi="http://sodipodi.sourceforge.net/DTD/sodipodi-0.dtd"
   xmlns:inkscape="http://www.inkscape.org/namespaces/inkscape"
   version="1.1"
   id="Layer_1"
   x="0px"
   y="0px"
   viewBox="0 0 1000 600"
   enable-background="new 0 0 1000 600"
   xml:space="preserve"
   sodipodi:docname="DICJ-logo-final-correctif.svg"
   inkscape:version="0.92.2 (5c3e80d, 2017-08-06)"><metadata
     id="metadata21"><rdf:RDF><cc:Work
         rdf:about=""><dc:format>image/svg+xml</dc:format><dc:type
           rdf:resource="http://purl.org/dc/dcmitype/StillImage" /><dc:title></dc:title></cc:Work></rdf:RDF></metadata><defs
     id="defs19" /><sodipodi:namedview
     pagecolor="#ffffff"
     bordercolor="#666666"
     borderopacity="1"
     objecttolerance="10"
     gridtolerance="10"
     guidetolerance="10"
     inkscape:pageopacity="0"
     inkscape:pageshadow="2"
     inkscape:window-width="1920"
     inkscape:window-height="1001"
     id="namedview17"
     showgrid="false"
     inkscape:zoom="0.55625733"
     inkscape:cx="399.58602"
     inkscape:cy="243.57978"
     inkscape:window-x="-9"
     inkscape:window-y="-9"
     inkscape:window-maximized="1"
     inkscape:current-layer="Layer_1" /><g
     id="g14"><polygon
       fill="#0097DC"
       points="500,77.2 500,77.2 307,188.6 500,300 500,300 693,188.6  "
       id="polygon2"
       style="fill:#0e69e0;fill-opacity:1" /><polygon
       fill="#F9A01B"
       points="500,300 500,300 500,522.8 500,522.8 693,411.4 693,188.6  "
       id="polygon4" /><polygon
       fill="#005DAC"
       points="307,188.6 307.1,411.4 500,522.8 500,300 500,300  "
       id="polygon6"
       style="fill:#083a7c;fill-opacity:1" /><g
       id="g10"><polygon
         fill="#FFFFFF"
         points="500,481 500,433.7 615.8,366.9 615.8,233.1 500,166.3 384.2,233.1 384.2,366.9 444.1,402     491.7,296.3 528.8,313 462.6,459.9 343.5,390.3 343.5,209.7 500,119.3 656.5,209.7 656.5,390.4   "
         id="polygon8" /></g><path
       fill-rule="evenodd"
       clip-rule="evenodd"
       fill="#FFFFFF"
       d="M449.8,299.1c5.6-5.5,11.4-10.8,17.2-16.1c16-15,32.1-30,48.1-45   c5.6-5.2,11.2-10.5,16.8-15.7c4.7-4.3,11.6-4.6,16.5-0.6c3.4,2.8,4.6,6.5,4.6,10.8c0,18.7,0,37.3,0,56c-0.3,11.5,0.1,23-0.3,34.5   c-0.2,7.1-0.1,14.3-0.1,21.4c0,1.9-0.3,3.8-1.1,5.6c-3.7,7.7-13.5,9.5-20,3.5c-4.4-4.1-8.8-8.2-13.1-12.3c-1.9-1.8-2.1-1.8-3.2,0.6   c-4.4,10.3-8.9,20.6-13.3,30.9c-3.4,7.8-10,10.5-17.8,7.2c-4.6-1.9-9.1-3.9-13.7-6c-7-3.2-9.1-9.4-6.2-16.5   c1.2-2.9,2.6-5.7,3.9-8.5c3.6-7.9,6.7-16.3,10.3-24.2c0.7-1.6,0.5-1.9-1.1-2c-1.4-0.1-2.9-0.3-4.3-0.4c-5.5-0.5-11-1-16.5-1.6   c-5.2-0.7-8.7-3.7-10.2-8.7C444.7,307,446.1,302.6,449.8,299.1z"
       id="path12" /></g></svg>