<?xml version="1.0" encoding="UTF-8" standalone="no"?>
<!-- Generator: Adobe Illustrator 18.1.1, SVG Export Plug-In . SVG Version: 6.00 Build 0)  -->

<svg
   xmlns:dc="http://purl.org/dc/elements/1.1/"
   xmlns:cc="http://creativecommons.org/ns#"
   xmlns:rdf="http://www.w3.org/1999/02/22-rdf-syntax-ns#"
   xmlns:svg="http://www.w3.org/2000/svg"
   xmlns="http://www.w3.org/2000/svg"
   xmlns:sodipodi="http://sodipodi.sourceforge.net/DTD/sodipodi-0.dtd"
   xmlns:inkscape="http://www.inkscape.org/namespaces/inkscape"
   version="1.1"
   id="Layer_1"
   x="0px"
   y="0px"
   viewBox="0 0 1000 600"
   enable-background="new 0 0 1000 600"
   xml:space="preserve"
   sodipodi:docname="DICJ-logo-final-texte-correctif.svg"
   inkscape:version="0.92.2 (5c3e80d, 2017-08-06)"><metadata
     id="metadata552"><rdf:RDF><cc:Work
         rdf:about=""><dc:format>image/svg+xml</dc:format><dc:type
           rdf:resource="http://purl.org/dc/dcmitype/StillImage" /><dc:title></dc:title></cc:Work></rdf:RDF></metadata><defs
     id="defs550" /><sodipodi:namedview
     pagecolor="#ffffff"
     bordercolor="#666666"
     borderopacity="1"
     objecttolerance="10"
     gridtolerance="10"
     guidetolerance="10"
     inkscape:pageopacity="0"
     inkscape:pageshadow="2"
     inkscape:window-width="1920"
     inkscape:window-height="1001"
     id="namedview548"
     showgrid="false"
     inkscape:zoom="1.1125147"
     inkscape:cx="437.75446"
     inkscape:cy="337.9611"
     inkscape:window-x="-9"
     inkscape:window-y="-9"
     inkscape:window-maximized="1"
     inkscape:current-layer="Layer_1" /><g
     id="g545"><polygon
       fill="#0097DC"
       points="230.6,100.3 230.6,100.3 120.7,163.7 230.6,227.1 230.6,227.1 340.4,163.7  "
       id="polygon439"
       style="fill:#0e69e0;fill-opacity:1" /><polygon
       fill="#F9A01B"
       points="230.6,227.1 230.6,227.1 230.6,353.9 230.6,353.9 340.4,290.5 340.4,163.7  "
       id="polygon441" /><polygon
       fill="#005DAC"
       points="120.7,163.7 120.8,290.5 230.6,353.9 230.6,227.1 230.6,227.1  "
       id="polygon443"
       style="fill:#083a7c;fill-opacity:1" /><g
       id="g447"><polygon
         fill="#FFFFFF"
         points="230.6,330.1 230.6,303.3 296.5,265.2 296.5,189.1 230.6,151 164.7,189.1 164.7,265.2 198.7,285.2     225.8,225 246.9,234.5 209.3,318.2 141.5,278.5 141.5,175.7 230.6,124.3 319.6,175.7 319.6,278.6   "
         id="polygon445" /></g><path
       fill-rule="evenodd"
       clip-rule="evenodd"
       fill="#FFFFFF"
       d="M202,226.6c3.2-3.1,6.5-6.1,9.8-9.2c9.1-8.5,18.2-17.1,27.4-25.6   c3.2-3,6.4-6,9.6-8.9c2.7-2.5,6.6-2.6,9.4-0.4c2,1.6,2.6,3.7,2.6,6.2c0,10.6,0,21.2,0,31.9c-0.1,6.6,0.1,13.1-0.1,19.7   c-0.1,4.1,0,8.1,0,12.2c0,1.1-0.1,2.2-0.6,3.2c-2.1,4.4-7.7,5.4-11.4,2c-2.5-2.3-5-4.7-7.5-7c-1.1-1-1.2-1-1.8,0.4   c-2.5,5.9-5,11.7-7.6,17.6c-1.9,4.4-5.7,6-10.1,4.1c-2.6-1.1-5.2-2.2-7.8-3.4c-4-1.8-5.2-5.4-3.5-9.4c0.7-1.6,1.5-3.2,2.2-4.9   c2-4.5,3.8-9.3,5.8-13.8c0.4-0.9,0.3-1.1-0.6-1.2c-0.8-0.1-1.6-0.1-2.4-0.2c-3.1-0.3-6.3-0.5-9.4-0.9c-3-0.4-4.9-2.1-5.8-4.9   C199.1,231.1,199.9,228.6,202,226.6z"
       id="path449" /><g
       id="g459"><path
         fill="#005DAC"
         d="M469.8,122.2c40.5,0,60.7,20.2,60.7,60.7v91c0,40.5-20.2,60.7-60.7,60.7h-91V122.2H469.8z M484.9,182.9    c0-10.1-5.1-15.2-15.2-15.2h-45.5v121.4h45.5c10.1,0,15.2-5.1,15.2-15.2V182.9z"
         id="path451"
         style="fill:#083a7c;fill-opacity:1" /><path
         fill="#005DAC"
         d="M606.3,122.2v212.4h-45.5V122.2H606.3z"
         id="path453"
         style="fill:#083a7c;fill-opacity:1" /><path
         fill="#005DAC"
         d="M682.2,273.9c0,10.1,5.1,15.2,15.2,15.2h75.9v45.5h-75.9c-40.5,0-60.7-20.2-60.7-60.7v-91    c0-40.5,20.2-60.7,60.7-60.7h75.9v45.5h-75.9c-10.1,0-15.2,5.1-15.2,15.2V273.9z"
         id="path455"
         style="fill:#083a7c;fill-opacity:1" /><path
         fill="#005DAC"
         d="M849.1,122.2h45.5v151.7c0,40.5-20.2,60.7-60.7,60.7h-30.3v-45.5h30.3c10.1,0,15.2-5.1,15.2-15.2V122.2z"
         id="path457"
         style="fill:#083a7c;fill-opacity:1" /></g><g
       id="g543"><path
         fill="#333333"
         d="M138.5,384.5c8,0,12,4,12,12v18c0,8-4,12-12,12h-18v-42H138.5z M141.5,396.5c0-2-1-3-3-3h-9v24h9    c2,0,3-1,3-3V396.5z"
         id="path461" /><path
         fill="#333333"
         d="M165.5,415.1v0.9c0,2,1,3,3,3H182v7.5h-13.5c-8,0-12-4-12-12v-6c0-8,4-12,12-12h3c8,0,12,4,12,12v6.6    H165.5z M165.5,407.3v1.2h9v-1.2c0-2-1-3-3-3h-3C166.5,404.3,165.5,405.3,165.5,407.3z M166,393.5l2.7-9h9.3l-2.7,9H166z"
         id="path463" /><path
         fill="#333333"
         d="M198.5,438.5h-9v-42h8.1l0.9,2.4c1-1.6,3-2.4,6-2.4c8,0,12,4,12,12v6c0,8-4,12-12,12c-3,0-5-0.8-6-2.4    V438.5z M204.5,405.5c-3,0-5,0.5-6,1.5v9c1,1,3,1.5,6,1.5c2,0,3-1,3-3v-6C207.5,406.5,206.5,405.5,204.5,405.5z"
         id="path465" /><path
         fill="#333333"
         d="M234.5,404.9h-9v-8.4h9c10,0,15,4.6,15,13.8v16.2h-8.1l-0.9-2.4c-1,1.6-3,2.4-6,2.4h-3c-6,0-9-3.1-9-9.3    s3-9.3,9-9.3h3c3,0,5,0.8,6,2.4C240.5,406.7,238.5,404.9,234.5,404.9z M234.5,419.3c3,0,5-0.5,6-1.5V416c-1-1-3-1.5-6-1.5    c-2,0-3,0.8-3,2.4C231.5,418.5,232.5,419.3,234.5,419.3z"
         id="path467" /><path
         fill="#333333"
         d="M264.5,426.5h-9v-30h8.1l0.9,2.4c1-1.6,3-2.4,6-2.4h3v9h-3c-3,0-5,0.5-6,1.5V426.5z"
         id="path469" /><path
         fill="#333333"
         d="M291.5,414.5c0,2,1,3,3,3h4.5v9h-4.5c-8,0-12-4-12-12v-9H278v-9h4.5v-9l9-3v12h7.5v9h-7.5V414.5z"
         id="path471" /><path
         fill="#333333"
         d="M314,415.1v0.9c0,2,1,3,3,3h13.5v7.5H317c-8,0-12-4-12-12v-6c0-8,4-12,12-12h3c8,0,12,4,12,12v6.6H314z     M314,407.3v1.2h9v-1.2c0-2-1-3-3-3h-3C315,404.3,314,405.3,314,407.3z"
         id="path473" /><path
         fill="#333333"
         d="M346.1,396.5l0.9,3c1-2,3-3,6-3c3.5,0,6,1.3,7.7,3.9c2.4-2.6,5.8-3.9,10.3-3.9c8,0,12,3.5,12,10.5v19.5h-9    v-18c0-2-1.5-3-4.5-3s-4.5,1-4.5,3v18h-9v-18.3c0-1.8-1.3-2.7-3.9-2.7c-2.4,0-4.1,1-5.1,3v18h-9v-30H346.1z"
         id="path475" /><path
         fill="#333333"
         d="M398,415.1v0.9c0,2,1,3,3,3h13.5v7.5H401c-8,0-12-4-12-12v-6c0-8,4-12,12-12h3c8,0,12,4,12,12v6.6H398z     M398,407.3v1.2h9v-1.2c0-2-1-3-3-3h-3C399,404.3,398,405.3,398,407.3z"
         id="path477" /><path
         fill="#333333"
         d="M431,426.5h-9v-30h8.1l0.9,2.4c1-1.6,3-2.4,6-2.4c8,0,12,4,12,12v18h-9v-18c0-2-1-3-3-3c-3,0-5,0.5-6,1.5    V426.5z"
         id="path479" /><path
         fill="#333333"
         d="M468.5,414.5c0,2,1,3,3,3h4.5v9h-4.5c-8,0-12-4-12-12v-9H455v-9h4.5v-9l9-3v12h7.5v9h-7.5V414.5z"
         id="path481" /><path
         fill="#333333"
         d="M512,384.5h9v42h-8.1l-0.9-2.4c-1,1.6-3,2.4-6,2.4c-8,0-12-4-12-12v-6c0-8,4-12,12-12c3,0,5,0.8,6,2.4    V384.5z M506,417.5c3,0,5-0.5,6-1.5v-9c-1-1-3-1.5-6-1.5c-2,0-3,1-3,3v6C503,416.5,504,417.5,506,417.5z"
         id="path483" /><path
         fill="#333333"
         d="M539,384.5l-3,9h-9l3-9H539z"
         id="path485" /><path
         fill="#333333"
         d="M554,384.5v9h-9v-9H554z M554,396.5v30h-9v-30H554z"
         id="path487" /><path
         fill="#333333"
         d="M569,426.5h-9v-30h8.1l0.9,2.4c1-1.6,3-2.4,6-2.4c8,0,12,4,12,12v18h-9v-18c0-2-1-3-3-3c-3,0-5,0.5-6,1.5    V426.5z"
         id="path489" /><path
         fill="#333333"
         d="M606.5,396.5h7.5v9h-7.5v21h-9v-21H593v-9h4.5c0-8,4-12,12-12h4.5v9h-4.5    C607.5,393.5,606.5,394.5,606.5,396.5z"
         id="path491" /><path
         fill="#333333"
         d="M647,414.5c0,8-4,12-12,12h-3c-8,0-12-4-12-12v-6c0-8,4-12,12-12h3c8,0,12,4,12,12V414.5z M629,414.5    c0,2,1,3,3,3h3c2,0,3-1,3-3v-6c0-1.8-1-2.7-3-2.7h-3c-2,0-3,0.9-3,2.7V414.5z"
         id="path493" /><path
         fill="#333333"
         d="M662,426.5h-9v-30h8.1l0.9,2.4c1-1.6,3-2.4,6-2.4h3v9h-3c-3,0-5,0.5-6,1.5V426.5z"
         id="path495" /><path
         fill="#333333"
         d="M683.6,396.5l0.9,3c1-2,3-3,6-3c3.5,0,6,1.3,7.7,3.9c2.4-2.6,5.8-3.9,10.3-3.9c8,0,12,3.5,12,10.5v19.5h-9    v-18c0-2-1.5-3-4.5-3s-4.5,1-4.5,3v18h-9v-18.3c0-1.8-1.3-2.7-3.9-2.7c-2.4,0-4.1,1-5.1,3v18h-9v-30H683.6z"
         id="path497" /><path
         fill="#333333"
         d="M738.5,404.9h-9v-8.4h9c10,0,15,4.6,15,13.8v16.2h-8.1l-0.9-2.4c-1,1.6-3,2.4-6,2.4h-3c-6,0-9-3.1-9-9.3    s3-9.3,9-9.3h3c3,0,5,0.8,6,2.4C744.5,406.7,742.5,404.9,738.5,404.9z M738.5,419.3c3,0,5-0.5,6-1.5V416c-1-1-3-1.5-6-1.5    c-2,0-3,0.8-3,2.4C735.5,418.5,736.5,419.3,738.5,419.3z"
         id="path499" /><path
         fill="#333333"
         d="M773,414.5c0,2,1,3,3,3h4.5v9H776c-8,0-12-4-12-12v-9h-4.5v-9h4.5v-9l9-3v12h7.5v9H773V414.5z"
         id="path501" /><path
         fill="#333333"
         d="M795.5,384.5v9h-9v-9H795.5z M795.5,396.5v30h-9v-30H795.5z"
         id="path503" /><path
         fill="#333333"
         d="M819.5,424.1c-1,1.6-3,2.4-6,2.4c-8,0-12-4-12-12v-6c0-8,4-12,12-12c3,0,5,0.8,6,2.4l0.9-2.4h8.1v42h-9    V424.1z M813.5,405.5c-2,0-3,1-3,3v6c0,2,1,3,3,3c3,0,5-0.5,6-1.5v-9C818.5,406,816.5,405.5,813.5,405.5z"
         id="path505" /><path
         fill="#333333"
         d="M852.5,396.5h9v30h-8.1l-0.9-2.4c-1,1.6-3,2.4-6,2.4c-8,0-12-4-12-12v-18h9v18c0,2,1,3,3,3    c3,0,5-0.5,6-1.5V396.5z"
         id="path507" /><path
         fill="#333333"
         d="M876.5,415.1v0.9c0,2,1,3,3,3H893v7.5h-13.5c-8,0-12-4-12-12v-6c0-8,4-12,12-12h3c8,0,12,4,12,12v6.6    H876.5z M876.5,407.3v1.2h9v-1.2c0-2-1-3-3-3h-3C877.5,404.3,876.5,405.3,876.5,407.3z"
         id="path509" /><path
         fill="#333333"
         d="M126.5,487.7c0,3,1.5,4.5,4.5,4.5h13.5v6H131c-7,0-10.5-3.5-10.5-10.5v-21c0-7,3.5-10.5,10.5-10.5h13.5v6    H131c-3,0-4.5,1.5-4.5,4.5V487.7z"
         id="path511" /><path
         fill="#333333"
         d="M156.5,485.6v2.1c0,3,1.5,4.5,4.5,4.5h12v6h-12c-7,0-10.5-3.5-10.5-10.5v-9c0-7,3.5-10.5,10.5-10.5h3    c7,0,10.5,3.5,10.5,10.5v6.9H156.5z M156.5,480.8h12v-2.1c0-3-1.5-4.5-4.5-4.5h-3c-3,0-4.5,1.5-4.5,4.5V480.8z M159.5,465.2l2.7-9    h6.3l-4.2,9H159.5z"
         id="path513" /><path
         fill="#333333"
         d="M198.5,495.2c-2,2-4.5,3-7.5,3c-7,0-10.5-3.5-10.5-10.5v-9c0-7,3.5-10.5,10.5-10.5c3,0,5.5,1,7.5,3l0.9-3    h5.1v30c0,8-4,12-12,12h-9v-6h9c4,0,6-2,6-6V495.2z M191,474.2c-3,0-4.5,1.5-4.5,4.5v9c0,3,1.5,4.5,4.5,4.5s5.5-0.5,7.5-1.5v-15    C196.5,474.7,194,474.2,191,474.2z"
         id="path515" /><path
         fill="#333333"
         d="M216.5,485.6v2.1c0,3,1.5,4.5,4.5,4.5h12v6h-12c-7,0-10.5-3.5-10.5-10.5v-9c0-7,3.5-10.5,10.5-10.5h3    c7,0,10.5,3.5,10.5,10.5v6.9H216.5z M216.5,480.8h12v-2.1c0-3-1.5-4.5-4.5-4.5h-3c-3,0-4.5,1.5-4.5,4.5V480.8z"
         id="path517" /><path
         fill="#333333"
         d="M246.5,510.2h-6v-42h5.1l0.9,2.4c0.8-1.6,2.8-2.4,6-2.4h3c6,0,9,3,9,9v12c0,6-3,9-9,9h-3    c-3.2,0-5.2-0.8-6-2.4V510.2z M252.5,474.2c-3.2,0-5.2,0.5-6,1.5v15c0.8,1,2.8,1.5,6,1.5h3c2,0,3-1,3-3v-12c0-2-1-3-3-3H252.5z"
         id="path519" /><path
         fill="#333333"
         d="M300.5,456.2h6v42h-5.1l-0.9-3c-2,2-4.5,3-7.5,3c-7,0-10.5-3.5-10.5-10.5v-9c0-7,3.5-10.5,10.5-10.5    c3,0,5.5,1,7.5,3V456.2z M300.5,490.7v-15c-2-1-4.5-1.5-7.5-1.5s-4.5,1.5-4.5,4.5v9c0,3,1.5,4.5,4.5,4.5S298.5,491.7,300.5,490.7z    "
         id="path521" /><path
         fill="#333333"
         d="M318.5,485.6v2.1c0,3,1.5,4.5,4.5,4.5h12v6h-12c-7,0-10.5-3.5-10.5-10.5v-9c0-7,3.5-10.5,10.5-10.5h3    c7,0,10.5,3.5,10.5,10.5v6.9H318.5z M318.5,480.8h12v-2.1c0-3-1.5-4.5-4.5-4.5h-3c-3,0-4.5,1.5-4.5,4.5V480.8z"
         id="path523" /><path
         fill="#333333"
         d="M363.5,456.2h6v30c0,8-4,12-12,12h-3v-6h3c4,0,6-2,6-6V456.2z"
         id="path525" /><path
         fill="#333333"
         d="M399.5,489.2c0,6-3,9-9,9h-6c-6,0-9-3-9-9v-12c0-6,3-9,9-9h6c6,0,9,3,9,9V489.2z M381.5,489.2c0,2,1,3,3,3    h6c2,0,3-1,3-3v-12c0-1.8-1-2.7-3-2.7h-6c-2,0-3,0.9-3,2.7V489.2z"
         id="path527" /><path
         fill="#333333"
         d="M411.5,498.2h-6v-30h5.1l0.9,3c2-2,4.5-3,7.5-3c7,0,10.5,3.5,10.5,10.5v19.5h-6v-19.5c0-3-1.5-4.5-4.5-4.5    s-5.5,0.5-7.5,1.5V498.2z"
         id="path529" /><path
         fill="#333333"
         d="M453.5,495.8c-1,1.6-3,2.4-6,2.4h-3c-6,0-9-3-9-9v-12c0-6,3-9,9-9h3c3,0,5,0.8,6,2.4l0.9-2.4h5.1v42h-6    V495.8z M444.5,474.2c-2,0-3,1-3,3v12c0,2,1,3,3,3h3c3,0,5-0.5,6-1.5v-15c-1-1-3-1.5-6-1.5H444.5z"
         id="path531" /><path
         fill="#333333"
         d="M483.5,468.2h6v30h-5.1l-0.9-3c-2,2-4.5,3-7.5,3c-7,0-10.5-3.5-10.5-10.5v-19.5h6v19.5    c0,3,1.5,4.5,4.5,4.5s5.5-0.5,7.5-1.5V468.2z"
         id="path533" /><path
         fill="#333333"
         d="M501.5,456.2v6h-6v-6H501.5z M501.5,468.2v30h-6v-30H501.5z"
         id="path535" /><path
         fill="#333333"
         d="M513.5,485.6v2.1c0,3,1.5,4.5,4.5,4.5h12v6h-12c-7,0-10.5-3.5-10.5-10.5v-9c0-7,3.5-10.5,10.5-10.5h3    c7,0,10.5,3.5,10.5,10.5v6.9H513.5z M517.7,465.2l-4.2-9h6.3l2.7,9H517.7z M513.5,480.8h12v-2.1c0-3-1.5-4.5-4.5-4.5h-3    c-3,0-4.5,1.5-4.5,4.5V480.8z"
         id="path537" /><path
         fill="#333333"
         d="M543.5,498.2h-6v-30h5.1l0.9,3c2-2,4.5-3,7.5-3h1.5v6H551c-3,0-5.5,0.5-7.5,1.5V498.2z"
         id="path539" /><path
         fill="#333333"
         d="M563,485.6v2.1c0,3,1.5,4.5,4.5,4.5h12v6h-12c-7,0-10.5-3.5-10.5-10.5v-9c0-7,3.5-10.5,10.5-10.5h3    c7,0,10.5,3.5,10.5,10.5v6.9H563z M563,480.8h12v-2.1c0-3-1.5-4.5-4.5-4.5h-3c-3,0-4.5,1.5-4.5,4.5V480.8z"
         id="path541" /></g></g></svg>